Patient4_TMGait_0pt7_02_right_36_GRF.mot
version=1
nRows=26
nColumns=19
inDegrees=no
endheader
time	F1x	F1y	F1z	M1x	M1y	M1z	F2x	F2y	F2z	M2x	M2y	M2z	EC1x	EC1y	EC1z	EC2x	EC2y	EC2z
40.63	2.4705	739.9372	67.9815	-249.6632	-72.6436	750.627	1.1501	-2.5437	-15.806	4.1876	7.3999	0.58249	-0.0592	0.0182	-0.0073	-0.0462	0.0165	0.9585
40.6416	1.5537	744.7427	68.902	-251.2531	-72.2782	755.45	0.6637	-0.76226	-10.7692	3.238	5.0944	1.4672	-0.0592	0.0182	-0.0073	-0.0462	0.0165	0.9585
40.6533	0.80286	749.9096	69.6609	-252.8374	-71.8239	759.9314	0.24292	0.83889	-6.4756	2.4524	3.1337	2.3255	-0.0592	0.0182	-0.0073	-0.0462	0.0165	0.9585
40.6649	0.33748	754.8312	70.1917	-254.2271	-71.2498	763.4261	-0.089443	2.1618	-3.1805	1.8777	1.6332	3.1084	-0.0592	0.0182	-0.0073	-0.0462	0.0165	0.9585
40.6766	0.25462	758.8282	70.4804	-255.2251	-70.5178	765.2892	-0.33558	3.1701	-0.8841	1.5025	0.59394	3.7719	-0.0592	0.0182	-0.0073	-0.0462	0.0165	0.9585
40.6882	0.56977	761.2949	70.4947	-255.6607	-69.5627	765.0323	-0.5047	3.8892	0.5535	1.2918	-0.047796	4.3101	-0.0592	0.0182	-0.0073	-0.0462	0.0165	0.9585
40.6999	1.2919	761.7658	70.2439	-255.4089	-68.3481	762.3178	-0.62239	4.3269	1.3155	1.1882	-0.36928	4.673	-0.0592	0.0182	-0.0073	-0.0462	0.0165	0.9585
40.7115	2.3739	760.0377	69.7228	-254.4235	-66.8421	757.0558	-0.70591	4.4934	1.6036	1.1316	-0.46271	4.8289	-0.0592	0.0182	-0.0073	-0.0462	0.0165	0.9585
40.7231	3.7919	756.1502	68.9876	-252.7317	-65.0727	749.3717	-0.76764	4.3562	1.5784	1.0559	-0.3981	4.7007	-0.0592	0.0182	-0.0073	-0.0462	0.0165	0.9585
40.7348	5.5286	750.4316	68.1	-250.4478	-63.0793	739.6554	-0.81997	3.8417	1.3768	0.8915	-0.23843	4.1661	-0.0592	0.0182	-0.0073	-0.0462	0.0165	0.9585
40.7464	7.5876	743.4188	67.1696	-247.7474	-60.9463	728.4444	-0.85173	2.8527	1.0934	0.57155	-0.030983	3.0801	-0.0592	0.0182	-0.0073	-0.0462	0.0165	0.9585
40.7581	9.9932	735.8213	66.3032	-244.8584	-58.7534	716.4502	-0.85376	1.272	0.78932	0.033491	0.18293	1.2978	-0.0592	0.0182	-0.0073	-0.0462	0.0165	0.9585
40.7697	12.8119	728.4123	65.6237	-242.025	-56.5895	704.4174	-0.7841	-0.97138	0.51297	-0.76123	0.35377	-1.2817	-0.0592	0.0182	-0.0073	-0.0462	0.0165	0.9585
40.7814	16.0933	721.9171	65.2424	-239.4749	-54.5369	693.0466	-0.60862	-3.8627	0.3052	-1.811	0.42675	-4.6503	-0.0592	0.0182	-0.0073	-0.0462	0.0165	0.9585
40.793	19.9233	716.9681	65.239	-237.4046	-52.6396	682.9311	-0.25582	-7.2138	0.21958	-3.0425	0.31339	-8.6	-0.0592	0.0182	-0.0073	-0.0462	0.0165	0.9585
40.8046	24.3581	714.0191	65.663	-235.9525	-50.9275	674.5165	0.31626	-10.5642	0.31288	-4.2743	-0.081622	-12.5862	-0.0592	0.0182	-0.0073	-0.0462	0.0165	0.9585
40.8163	29.4262	713.259	66.5111	-235.1773	-49.3946	668.0012	1.1755	-13.0601	0.67259	-5.1715	-0.88644	-15.5926	-0.0592	0.0182	-0.0073	-0.0462	0.0165	0.9585
40.8279	35.0763	714.5387	67.7371	-235.0328	-48.0264	663.3141	2.341	-13.3316	1.383	-5.2013	-2.2063	-15.9957	-0.0592	0.0182	-0.0073	-0.0462	0.0165	0.9585
40.8396	41.1783	717.2928	69.2117	-235.3487	-46.7617	660.0066	3.7967	-9.4365	2.5325	-3.6087	-4.1237	-11.5171	-0.0592	0.0182	-0.0073	-0.0462	0.0165	0.9585
40.8512	47.5351	720.5763	70.7358	-235.8394	-45.4961	657.3115	5.4079	1.1707	4.1686	0.5877	-6.6255	0.86127	-0.0592	0.0182	-0.0073	-0.0462	0.0165	0.9585
40.8629	53.9286	723.0765	72.0324	-236.1088	-44.066	654.1414	6.8968	21.4369	6.2647	8.521	-9.5502	24.6299	-0.0592	0.0182	-0.0073	-0.0462	0.0165	0.9585
40.8745	60.0601	723.1975	72.8031	-235.6695	-42.3146	649.1771	7.7719	54.3475	8.6509	21.3244	-12.4793	63.3353	-0.0592	0.0182	-0.0073	-0.0462	0.0165	0.9585
40.8861	65.6039	719.1178	72.7553	-233.961	-40.1022	640.9035	7.2816	102.1138	10.9386	39.8229	-14.6384	119.6116	-0.0592	0.0182	-0.0073	-0.0462	0.0165	0.9585
40.8978	70.1902	708.893	71.6292	-230.3801	-37.3325	627.7208	4.362	165.0276	12.4322	64.0782	-14.7802	193.857	-0.0592	0.0182	-0.0073	-0.0462	0.0165	0.9585
40.9094	73.457	690.5675	69.2149	-224.3142	-33.9553	608.0081	-2.4031	240.0269	12.1479	92.8441	-11.2331	282.4992	-0.0592	0.0182	-0.0073	-0.0462	0.0165	0.9585
40.9211	75.0245	662.4272	65.3646	-215.2138	-29.9789	580.3616	-13.7202	319.8612	9.0496	123.2577	-2.5834	376.9962	-0.0592	0.0182	-0.0073	-0.0462	0.0165	0.9585
